<?xml version="1.0" standalone="no"?>
<!DOCTYPE svg PUBLIC "-//W3C//DTD SVG 20010904//EN"
 "http://www.w3.org/TR/2001/REC-SVG-20010904/DTD/svg10.dtd">
<svg version="1.0" xmlns="http://www.w3.org/2000/svg"
 width="512.000000pt" height="512.000000pt" viewBox="0 0 512.000000 512.000000"
 preserveAspectRatio="xMidYMid meet">

<g transform="translate(0.000000,512.000000) scale(0.100000,-0.100000)"
fill="#000000" stroke="none">
<path d="M588 5105 c-15 -9 -33 -25 -39 -37 -30 -56 -439 -1306 -439 -1341 0
-53 45 -97 101 -97 34 0 90 34 460 281 232 154 425 277 429 272 4 -4 67 -91
140 -193 l131 -185 -148 -16 c-476 -53 -716 -154 -688 -292 6 -25 181 -206
856 -882 l849 -850 0 -567 0 -568 -22 -5 c-13 -2 -61 -9 -108 -15 -362 -46
-652 -134 -700 -213 -25 -41 -26 -107 -1 -156 52 -102 244 -179 536 -215 494
-61 1066 0 1257 133 63 44 93 86 102 142 17 105 -77 174 -314 234 -107 27
-284 59 -410 75 -47 6 -95 13 -107 15 l-23 5 0 568 0 567 710 710 c390 390
710 705 710 698 0 -6 -23 -121 -51 -255 l-52 -243 19 -35 c11 -19 30 -40 45
-47 76 -37 302 -41 437 -8 288 69 533 270 657 538 66 142 80 212 80 397 0 142
-3 176 -23 244 -50 173 -135 317 -259 437 -305 297 -736 362 -1113 168 -196
-101 -373 -297 -450 -499 l-21 -55 -132 9 c-170 11 -1220 13 -1313 3 l-71 -8
-172 241 c-94 133 -171 245 -171 249 0 4 205 145 456 312 251 167 467 317 481
333 32 38 27 96 -11 135 l-26 26 -783 2 c-676 2 -786 0 -809 -12z m1182 -200
c0 -3 -304 -207 -675 -455 -371 -248 -675 -447 -675 -442 0 6 278 845 295 890
3 9 119 12 530 12 289 0 525 -2 525 -5z m2460 -661 c36 -8 108 -36 160 -61 80
-39 110 -62 186 -138 81 -80 98 -103 142 -195 64 -134 77 -188 77 -330 0 -142
-13 -196 -77 -330 -44 -92 -61 -115 -142 -195 -76 -76 -106 -99 -186 -138
-103 -50 -181 -72 -302 -82 -61 -6 -78 -5 -78 6 0 7 34 173 75 370 41 196 75
367 75 381 0 54 -67 104 -125 94 -17 -4 -43 -18 -56 -32 -35 -37 -69 -53 -167
-74 -77 -17 -303 -49 -449 -64 l-53 -5 0 83 c0 265 157 519 400 645 165 86
332 107 520 65z m-1560 -624 c201 -6 379 -13 396 -16 l30 -6 0 -79 c0 -72 -2
-80 -20 -84 -44 -11 -712 -23 -936 -18 l-235 6 -63 89 c-35 49 -61 93 -57 96
4 4 113 9 243 12 130 3 246 7 257 8 11 1 184 -3 385 -8z m-1093 -102 l54 -78
-63 0 c-138 1 -668 64 -668 80 0 14 529 81 599 77 17 -2 38 -23 78 -79z m-341
-267 c345 -38 535 -45 1104 -46 575 0 790 9 1124 46 98 11 180 18 182 16 2 -1
-289 -295 -646 -652 l-650 -650 -653 653 c-358 358 -649 652 -646 652 3 0 86
-9 185 -19z m1309 -2852 c161 -23 369 -63 435 -83 l45 -13 -57 -17 c-160 -46
-359 -68 -623 -68 -268 0 -469 22 -624 70 l-53 16 48 13 c160 42 516 101 619
102 39 0 133 -8 210 -20z"/>
</g>
</svg>
