<?xml version="1.0" standalone="no"?>
<!DOCTYPE svg PUBLIC "-//W3C//DTD SVG 20010904//EN"
 "http://www.w3.org/TR/2001/REC-SVG-20010904/DTD/svg10.dtd">
<svg version="1.0" xmlns="http://www.w3.org/2000/svg"
 width="996.000000pt" height="665.000000pt" viewBox="0 0 996.000000 665.000000"
 preserveAspectRatio="xMidYMid meet">

<g transform="translate(0.000000,665.000000) scale(0.100000,-0.100000)"
fill="#000000" stroke="none">
<path d="M5391 6314 c0 -11 3 -14 6 -6 3 7 2 16 -1 19 -3 4 -6 -2 -5 -13z"/>
<path d="M5716 6318 c4 -6 -1 -8 -13 -4 -12 4 -25 1 -33 -9 -7 -8 -9 -15 -5
-15 4 0 2 -6 -4 -13 -13 -16 -5 -28 14 -20 8 2 22 0 32 -6 17 -10 17 -10 0
-11 -15 0 -15 -3 -5 -20 7 -11 19 -20 27 -20 10 0 11 3 2 14 -9 11 -8 15 5 20
28 11 42 7 47 -14 3 -11 1 -20 -4 -20 -5 0 -9 6 -10 13 0 6 -5 0 -10 -15 -6
-15 -18 -29 -27 -32 -9 -2 -3 -4 13 -3 20 1 29 7 27 16 -3 12 -1 12 15 1 28
-22 29 -24 11 -17 -12 4 -18 1 -18 -9 0 -11 -6 -14 -16 -10 -8 3 -12 2 -9 -4
3 -5 -7 -12 -22 -16 -15 -4 -33 -11 -40 -16 -7 -5 -17 -7 -22 -4 -5 4 -12 2
-16 -4 -3 -5 0 -10 7 -10 32 0 224 45 230 54 11 16 10 78 -1 72 -5 -4 -7 3 -4
14 8 32 -5 70 -22 64 -8 -4 -15 -1 -15 5 0 6 -11 11 -24 11 -14 0 -27 4 -31 9
-3 6 -23 9 -45 9 -24 0 -37 -4 -34 -10z m30 -46 c-9 -9 -37 8 -31 18 5 8 11 7
21 -1 8 -6 12 -14 10 -17z m116 -24 c-6 -6 -12 -4 -16 7 -3 9 -2 13 4 10 6 -3
10 0 11 7 0 10 2 10 6 0 3 -8 1 -18 -5 -24z m-47 -38 c3 -5 1 -10 -4 -10 -6 0
-11 5 -11 10 0 6 2 10 4 10 3 0 8 -4 11 -10z"/>
<path d="M5401 6274 c0 -11 3 -14 6 -6 3 7 2 16 -1 19 -3 4 -6 -2 -5 -13z"/>
<path d="M5431 6224 c0 -11 3 -14 6 -6 3 7 2 16 -1 19 -3 4 -6 -2 -5 -13z"/>
<path d="M5592 6180 c0 -14 2 -19 5 -12 2 6 2 18 0 25 -3 6 -5 1 -5 -13z"/>
<path d="M5450 6113 c0 -8 28 -41 62 -73 48 -45 60 -62 55 -79 -3 -11 -1 -19
4 -15 5 3 9 2 9 -3 0 -15 -19 -38 -32 -39 -7 0 -21 -2 -30 -2 -10 -1 -24 -15
-33 -32 -31 -61 -48 -25 -49 107 -1 44 -4 79 -8 77 -5 -3 -8 -64 -8 -135 0
-85 -4 -128 -10 -124 -6 3 -7 17 -4 31 3 13 3 32 -1 41 -4 10 -7 36 -6 59 2
31 -1 41 -13 41 -9 0 -14 -2 -11 -5 10 -10 -16 -41 -30 -36 -12 5 -15 -6 -16
-62 -1 -38 -1 -83 -1 -101 1 -18 -3 -35 -8 -38 -14 -9 -12 -47 4 -67 16 -22
94 -43 127 -35 36 9 99 71 99 97 0 13 7 28 15 34 10 7 16 32 17 73 2 35 7 63
11 63 5 0 5 5 2 11 -4 6 -8 28 -9 50 -1 21 -9 46 -18 56 -8 10 -20 32 -27 50
-15 38 -91 85 -91 56z m-70 -243 c0 -5 -5 -10 -11 -10 -5 0 -7 5 -4 10 3 6 8
10 11 10 2 0 4 -4 4 -10z m11 -54 c-10 -26 -31 -36 -31 -15 0 5 5 7 10 4 6 -3
10 2 10 13 0 10 3 22 7 25 12 13 14 0 4 -27z"/>
<path d="M5421 6104 c0 -11 3 -14 6 -6 3 7 2 16 -1 19 -3 4 -6 -2 -5 -13z"/>
<path d="M5535 6095 c43 -27 56 -27 63 -4 3 10 2 11 -7 3 -13 -12 -61 3 -61
19 0 4 -8 7 -17 7 -11 -1 -3 -10 22 -25z"/>
<path d="M5337 6053 c-3 -5 -8 -28 -12 -53 -4 -25 -12 -54 -18 -65 -10 -19 -9
-19 13 -4 20 13 24 25 25 72 2 56 1 65 -8 50z"/>
<path d="M5385 5999 c-4 -6 -5 -12 -2 -15 2 -3 7 2 10 11 7 17 1 20 -8 4z"/>
<path d="M4912 5781 c-15 -9 4 -35 108 -146 36 -38 92 -101 125 -139 33 -38
76 -88 96 -110 20 -23 48 -59 62 -82 40 -64 102 -131 116 -126 30 10 -4 -19
-99 -88 -88 -62 -100 -74 -94 -93 4 -12 7 -27 7 -34 0 -7 7 -15 14 -17 8 -3
12 -10 9 -15 -6 -9 41 -61 54 -61 4 0 20 10 36 22 138 105 267 251 262 298 -3
23 -7 25 -54 25 -51 0 -52 0 -97 60 -25 33 -146 162 -269 288 -218 222 -241
240 -276 218z"/>
<path d="M5120 5703 c0 -5 35 -43 78 -85 93 -92 154 -129 72 -43 -67 69 -150
140 -150 128z"/>
<path d="M4621 5556 c-18 -21 9 -78 123 -261 106 -171 145 -235 189 -312 15
-26 43 -69 62 -95 l35 -47 -25 -37 c-68 -100 -1 -119 147 -42 50 26 57 34 56
59 -1 16 -4 29 -7 29 -3 0 -12 12 -18 28 -7 15 -22 33 -34 40 -19 12 -25 11
-50 -7 -17 -13 -26 -16 -23 -7 3 7 -6 26 -19 42 -13 16 -37 49 -55 74 -17 25
-42 57 -56 72 -14 15 -26 30 -26 33 0 4 -8 17 -17 30 -10 12 -25 33 -33 45 -8
12 -21 28 -27 36 -7 7 -13 16 -13 21 0 8 -100 167 -120 190 -5 7 -24 36 -41
65 -17 29 -32 54 -34 56 -1 1 -7 -4 -14 -12z"/>
<path d="M6360 4929 c-24 -16 -39 -29 -33 -29 6 0 14 -11 17 -24 3 -13 17 -31
31 -40 25 -16 25 -16 25 16 0 18 4 48 9 65 5 18 6 34 3 36 -4 3 -27 -9 -52
-24z"/>
<path d="M5293 4683 c-34 -7 -106 -88 -124 -141 -20 -60 -16 -141 13 -211 12
-29 21 -59 21 -66 0 -10 7 -11 24 -4 12 4 30 6 38 3 8 -4 15 -1 15 5 0 7 -7
14 -16 18 -8 3 -13 12 -10 20 3 8 2 11 -4 8 -5 -3 -14 4 -20 15 -11 20 3 30
15 10 3 -5 21 -10 38 -10 30 1 31 2 13 15 -10 7 -15 18 -11 24 3 6 -1 11 -10
11 -9 0 -13 -4 -10 -10 3 -5 1 -10 -4 -10 -21 0 -11 21 14 30 14 5 24 13 23
17 -4 15 14 73 22 73 5 0 7 8 5 18 -2 10 1 25 5 32 7 12 12 11 28 -3 10 -9 21
-15 24 -12 3 3 8 -5 12 -18 4 -17 12 -23 28 -23 18 1 24 -5 26 -26 2 -18 8
-25 17 -22 10 4 12 0 8 -15 -6 -24 12 -29 21 -6 8 22 25 18 19 -5 -3 -11 0
-20 6 -20 6 0 11 -10 11 -22 0 -19 -2 -20 -10 -8 -6 9 -10 10 -10 3 0 -6 5
-15 10 -18 6 -4 7 -11 4 -17 -4 -6 -1 -9 6 -6 8 2 15 15 17 29 3 24 9 60 12
68 0 3 7 -3 14 -14 13 -16 14 -15 9 14 -3 25 -7 30 -14 20 -7 -10 -8 -7 -4 11
5 24 -18 104 -36 124 -4 6 -8 17 -8 26 0 26 -100 97 -120 85 -5 -3 -11 -1 -15
5 -6 10 -49 11 -92 3z m-53 -405 c0 -12 -28 3 -34 18 -4 11 -2 12 14 1 11 -6
20 -15 20 -19z"/>
<path d="M5569 4323 c-1 -5 -2 -17 -3 -28 -1 -10 -11 -24 -23 -30 -16 -8 -19
-15 -12 -26 8 -12 10 -12 18 1 8 12 13 12 30 -4 18 -17 21 -17 27 -3 3 9 3 21
-1 27 -3 5 -1 10 4 10 6 0 11 -7 11 -17 0 -9 3 -14 6 -10 4 3 4 17 0 31 -5 19
-11 23 -28 18 -18 -4 -20 -2 -16 16 4 12 2 22 -3 22 -5 0 -10 -3 -10 -7z m25
-68 c3 -8 1 -15 -3 -15 -5 0 -11 7 -15 15 -3 8 -1 15 3 15 5 0 11 -7 15 -15z"/>
<path d="M5217 4244 c-13 -14 16 -41 39 -36 13 2 24 0 24 -6 0 -5 9 -12 20
-15 30 -8 25 -1 -24 33 -48 32 -50 33 -59 24z"/>
<path d="M4820 4218 c0 -20 -17 -23 -40 -9 -21 14 -32 2 -14 -16 12 -12 14
-27 9 -59 -4 -29 -2 -45 7 -50 8 -5 4 -11 -16 -19 l-29 -12 27 -7 c17 -4 26
-13 26 -26 0 -20 -13 -21 -66 -5 -6 2 -17 -1 -25 -6 -11 -7 -11 -9 3 -9 9 0
19 -4 22 -9 4 -5 -10 -5 -32 -1 -34 8 -35 7 -18 -6 11 -8 31 -14 45 -15 23 0
24 -1 6 -8 -11 -5 -25 -4 -32 1 -7 5 -14 5 -17 -1 -4 -5 2 -14 11 -20 18 -10
16 -12 -25 -16 -30 -3 -41 -15 -14 -15 14 0 20 -5 16 -13 -5 -15 24 -50 71
-84 20 -15 25 -22 14 -23 -9 0 -39 25 -67 54 -46 50 -50 53 -56 33 -4 -17 6
-33 41 -69 26 -26 44 -51 40 -55 -4 -4 -22 11 -40 32 -89 106 -87 105 -154
110 -34 3 -80 9 -103 14 -22 5 -40 6 -40 2 0 -3 -16 -6 -36 -7 -20 0 -39 -5
-42 -10 -4 -5 -16 -11 -27 -13 -32 -5 -55 -21 -55 -36 0 -8 -3 -14 -7 -13 -20
6 -54 -27 -73 -68 -11 -26 -20 -48 -20 -50 0 -8 84 -83 88 -79 3 3 -2 13 -12
24 -15 16 -15 19 -2 24 11 4 13 1 9 -10 -5 -12 -1 -14 14 -9 18 6 20 3 17 -23
-4 -31 13 -47 47 -46 29 1 68 27 62 41 -3 8 1 14 11 14 10 0 13 -6 10 -15 -5
-11 -2 -13 9 -9 16 6 12 34 -5 34 -5 0 -2 7 6 16 21 21 21 21 -19 22 -35 1
-85 37 -62 45 7 2 17 -3 24 -12 11 -14 12 -14 13 2 0 19 15 23 25 7 9 -15 25
-2 25 21 0 10 5 19 11 19 5 0 7 5 4 10 -8 13 31 13 56 -1 16 -8 23 -7 33 7 12
16 13 15 19 -5 4 -16 13 -21 36 -21 19 0 34 -6 37 -15 4 -10 15 -12 35 -8 31
6 85 -4 75 -15 -4 -3 -25 -5 -46 -3 -35 2 -41 -1 -50 -25 -6 -15 -9 -28 -8
-29 17 -11 140 -65 149 -65 8 0 5 -9 -8 -22 -38 -43 -86 -121 -89 -145 -1 -14
-5 -27 -8 -30 -7 -8 13 -45 22 -39 4 2 8 -10 9 -27 3 -34 40 -80 60 -73 7 3
15 0 19 -5 4 -7 42 -9 108 -5 119 6 146 12 146 35 0 23 19 41 36 34 14 -5 18
6 14 42 -2 16 0 17 14 6 13 -11 16 -11 17 0 0 8 4 4 9 -9 8 -20 13 -21 32 -12
18 8 16 5 -6 -14 -17 -14 -33 -23 -37 -20 -4 2 -10 0 -13 -5 -12 -18 25 -4 63
25 72 53 99 129 63 174 -18 22 -18 22 -15 -22 1 -34 0 -39 -8 -25 -6 10 -8 24
-6 31 3 7 -1 13 -9 13 -8 0 -14 -4 -14 -9 0 -5 -9 -4 -21 2 -19 11 -19 13 -6
33 9 12 21 21 29 19 7 -1 4 5 -6 13 -16 12 -22 12 -29 2 -6 -8 -7 -4 -3 12 8
37 -95 134 -169 158 l-30 10 33 20 c19 12 40 30 48 41 13 18 11 22 -15 44 -25
22 -27 27 -15 43 19 25 18 104 -2 151 -9 22 -18 57 -20 79 -3 29 -11 46 -31
62 -15 12 -31 19 -36 16 -5 -3 -13 1 -18 8 -7 11 -9 10 -9 -3z m27 -47 c7 7
14 5 23 -6 11 -13 9 -15 -13 -15 -17 0 -30 8 -37 23 -10 20 -10 20 3 5 9 -12
17 -14 24 -7z m-2 -131 c3 -5 1 -10 -4 -10 -6 0 -11 5 -11 10 0 6 2 10 4 10 3
0 8 -4 11 -10z m-45 -109 c0 -18 -12 -41 -21 -41 -6 0 -6 8 0 19 6 10 7 21 4
25 -3 3 -1 6 5 6 7 0 12 -4 12 -9z m-48 -23 c-9 -9 -15 -9 -24 0 -9 9 -7 12
12 12 19 0 21 -3 12 -12z m49 -61 c-13 -13 -26 -3 -16 12 3 6 11 8 17 5 6 -4
6 -10 -1 -17z m46 17 c-3 -3 -12 -4 -19 -1 -8 3 -5 6 6 6 11 1 17 -2 13 -5z
m64 -53 c20 -18 20 -21 5 -15 -12 5 -17 4 -13 -3 8 -13 -25 -9 -75 10 -41 15
-61 29 -30 20 11 -2 22 -1 25 4 10 16 65 6 88 -16z m-161 -35 c0 -2 -7 -7 -16
-10 -8 -3 -12 -2 -9 4 6 10 25 14 25 6z m-444 -127 c3 -5 -6 -9 -20 -9 -14 0
-27 4 -30 9 -3 5 6 9 19 9 14 0 28 -4 31 -9z m516 -21 c10 2 18 -2 18 -7 0
-16 -36 -13 -54 5 -21 21 -20 30 1 13 9 -8 24 -13 35 -11z m81 -14 c-2 -5 -7
-9 -13 -8 -5 1 -17 2 -25 3 -8 0 -15 5 -15 10 0 5 12 8 28 7 15 -2 26 -7 25
-12z m167 -13 c0 -16 3 -36 6 -44 6 -16 -32 -31 -42 -16 -3 5 -9 7 -14 4 -11
-7 -80 23 -80 34 0 5 -8 11 -17 13 -13 2 -10 6 11 16 15 7 24 8 21 2 -3 -5 -1
-10 4 -10 6 0 11 5 11 10 0 6 5 10 11 10 5 0 7 -4 4 -10 -3 -5 -1 -10 4 -10 6
0 11 6 11 13 1 6 7 1 15 -13 14 -24 14 -24 15 -3 0 19 11 30 33 32 4 1 7 -12
7 -28z m-194 -106 c-7 -19 13 -19 38 0 28 21 34 19 28 -11 -3 -15 -1 -24 4
-21 17 10 56 -27 48 -46 -3 -9 -10 -17 -15 -17 -5 0 -9 -9 -9 -20 0 -24 -37
-63 -50 -55 -6 4 -4 15 5 28 17 24 19 37 7 37 -5 0 -14 -11 -22 -24 -14 -27
-46 -31 -55 -8 -5 13 -8 12 -23 -1 -15 -13 -20 -14 -36 -1 -18 12 -15 18 6 15
9 -1 31 39 25 46 -3 2 -11 -2 -18 -10 -7 -8 -22 -12 -31 -9 -15 4 -16 7 -6 20
11 13 9 14 -20 10 -38 -5 -41 -1 -7 12 35 13 31 30 -7 31 l-33 1 30 10 c27 9
96 23 134 27 8 0 11 -5 7 -14z m274 -89 c0 -2 -7 -9 -15 -16 -13 -11 -14 -10
-9 4 5 14 24 23 24 12z m-353 -62 c-3 -3 -12 -4 -19 -1 -8 3 -5 6 6 6 11 1 17
-2 13 -5z m83 -27 c0 -6 -3 -7 -7 -4 -3 4 -11 3 -17 -2 -11 -9 -99 -42 -101
-38 -1 1 2 13 6 27 4 16 7 19 8 8 1 -24 11 -23 52 5 33 23 59 25 59 4z m16
-22 c-23 -18 -36 -19 -36 -4 0 5 4 8 9 4 5 -3 12 -1 16 5 3 5 12 10 18 10 7 0
3 -7 -7 -15z"/>
<path d="M5612 4221 c-7 -4 -25 -6 -40 -5 l-27 4 28 -9 c30 -10 57 -5 57 10 0
11 -1 11 -18 0z"/>
<path d="M4230 4180 c0 -6 -6 -8 -12 -4 -8 4 -9 3 -5 -2 5 -5 16 -9 25 -9 11
0 16 -7 15 -20 -1 -11 0 -14 3 -7 3 6 12 12 19 12 17 0 27 -28 12 -33 -7 -2
-4 -3 6 -2 9 2 17 -3 17 -12 0 -10 -6 -12 -22 -7 -20 6 -21 5 -9 -10 14 -17
56 -23 46 -6 -3 6 -2 10 3 10 5 0 9 7 9 15 0 8 -6 15 -13 15 -13 0 -28 29 -19
38 3 3 5 0 5 -7 0 -7 8 -11 18 -9 11 2 21 -6 29 -25 10 -22 17 -26 37 -21 19
4 29 -1 52 -30 20 -24 31 -31 36 -23 5 8 8 6 8 -6 0 -10 4 -16 9 -13 5 4 11 0
14 -6 3 -9 8 -10 15 -3 7 7 2 24 -14 55 -12 25 -26 52 -30 60 -4 8 -15 20 -23
27 -19 15 -61 17 -61 4 0 -12 -39 -9 -65 6 -32 17 -105 27 -105 13z m205 -59
c-4 -3 -7 -4 -8 -2 -1 2 -13 -1 -26 -8 -14 -8 -21 -9 -17 -2 4 6 0 11 -8 11
-9 0 -16 3 -16 8 0 4 18 6 41 4 22 -2 37 -7 34 -11z"/>
<path d="M4730 4160 c0 -11 4 -20 9 -20 5 0 7 9 4 20 -3 11 -7 20 -9 20 -2 0
-4 -9 -4 -20z"/>
<path d="M4750 4169 c0 -5 5 -7 10 -4 6 3 10 8 10 11 0 2 -4 4 -10 4 -5 0 -10
-5 -10 -11z"/>
<path d="M4185 4160 c-3 -5 1 -10 10 -10 9 0 13 5 10 10 -3 6 -8 10 -10 10 -2
0 -7 -4 -10 -10z"/>
<path d="M4650 4162 c0 -6 -6 -9 -14 -6 -21 8 -27 -10 -11 -32 13 -18 14 -18
25 10 6 16 8 31 5 34 -3 3 -5 0 -5 -6z m-10 -22 c0 -5 -2 -10 -4 -10 -3 0 -8
5 -11 10 -3 6 -1 10 4 10 6 0 11 -4 11 -10z"/>
<path d="M4238 4108 c10 -13 10 -17 -4 -22 -9 -3 -21 -3 -27 0 -9 5 -9 4 -1
-5 9 -10 17 -10 34 -1 23 12 23 31 -1 39 -11 3 -12 2 -1 -11z"/>
<path d="M4580 4061 c0 -26 -5 -63 -11 -80 -8 -23 -8 -36 -1 -43 8 -8 13 4 18
41 4 28 10 51 15 51 5 0 9 9 9 20 0 11 -4 20 -10 20 -5 0 -10 5 -10 11 0 5 6
7 13 3 8 -5 8 -2 -2 9 -7 9 -15 17 -17 17 -2 0 -4 -22 -4 -49z"/>
<path d="M7062 4079 c-50 -32 -82 -95 -82 -160 0 -64 33 -142 76 -179 l29 -25
-27 30 c-32 36 -58 94 -58 130 0 36 16 23 24 -18 3 -19 13 -42 21 -53 13 -17
13 -14 0 18 -20 49 -19 121 1 161 16 31 60 77 74 77 4 0 10 9 13 20 7 27 -27
27 -71 -1z"/>
<path d="M4160 4082 c0 -5 7 -15 15 -22 8 -7 15 -9 15 -6 0 4 -7 14 -15 22 -8
9 -15 11 -15 6z"/>
<path d="M6822 4075 c-18 -8 -46 -24 -61 -35 -16 -10 -31 -17 -35 -13 -3 3 -6
1 -6 -6 0 -7 -4 -10 -9 -7 -13 8 -88 -80 -119 -139 -23 -44 -25 -61 -23 -140
2 -94 11 -133 11 -49 0 66 24 155 56 210 33 56 125 138 181 161 23 10 43 21
43 26 0 9 2 9 -38 -8z m-112 -68 c0 -2 -12 -14 -27 -28 l-28 -24 24 28 c23 25
31 32 31 24z m-119 -174 c-12 -20 -14 -14 -5 12 4 9 9 14 11 11 3 -2 0 -13 -6
-23z"/>
<path d="M7182 4048 c2 -17 11 -24 31 -26 36 -4 37 25 1 38 -35 14 -36 13 -32
-12z"/>
<path d="M4236 4035 c4 -8 15 -15 25 -15 10 0 19 -5 19 -10 0 -6 11 -8 28 -4
43 10 44 10 47 -9 4 -24 15 -35 15 -16 0 12 2 11 11 -1 9 -12 9 -11 4 5 -4 11
-8 25 -8 30 0 6 -28 11 -61 11 -35 1 -62 6 -64 13 -2 6 -8 11 -13 11 -4 0 -6
-7 -3 -15z"/>
<path d="M7362 4028 c2 -18 11 -24 36 -26 17 -2 32 -8 32 -13 0 -6 -4 -8 -9
-5 -5 4 -7 -3 -4 -14 3 -11 10 -20 15 -20 6 0 4 -8 -3 -17 -12 -14 -12 -16 0
-8 11 6 13 3 8 -14 -4 -17 -2 -21 9 -17 8 3 12 2 9 -3 -3 -5 -1 -12 5 -16 5
-3 10 -11 10 -17 0 -6 -8 -4 -18 5 -28 25 -54 22 -50 -5 2 -18 9 -23 35 -23
20 0 28 -4 23 -10 -9 -11 14 -38 24 -28 3 4 6 -5 6 -20 0 -14 8 -31 18 -37 16
-11 16 -11 -2 -6 -17 6 -17 5 -5 -11 12 -15 12 -16 -5 -10 -17 7 -17 6 -5 -10
12 -15 12 -16 -4 -10 -11 4 -16 3 -12 -3 10 -16 -7 -12 -29 8 -13 11 -17 12
-10 2 6 -8 13 -21 15 -28 5 -14 76 20 95 46 16 22 5 62 -20 72 -19 8 -19 9 -2
9 11 1 28 -6 38 -16 17 -15 18 -14 18 35 0 38 -5 54 -19 64 -10 7 -19 18 -19
23 0 6 -9 15 -19 20 -25 14 -32 26 -26 42 3 7 1 13 -3 14 -34 3 -51 12 -71 38
-30 37 -66 42 -61 9z"/>
<path d="M7575 4010 c10 -11 20 -20 23 -20 3 0 -3 9 -13 20 -10 11 -20 20 -23
20 -3 0 3 -9 13 -20z"/>
<path d="M4300 3995 c0 -2 9 -9 20 -15 15 -8 20 -8 20 3 0 7 -9 13 -20 14 -11
1 -20 0 -20 -2z"/>
<path d="M6705 3960 c-14 -14 -22 -30 -18 -35 5 -4 3 -5 -4 -1 -15 8 -57 -62
-73 -122 -6 -25 -8 -63 -4 -89 7 -45 7 -46 23 -26 9 11 27 25 39 32 12 6 22
19 23 29 0 10 3 12 6 5 5 -14 23 -18 23 -5 -1 24 -17 32 -48 21 -18 -6 -32
-15 -32 -20 0 -16 -18 -9 -22 9 -4 18 -1 32 27 99 14 33 21 41 34 34 9 -5 27
-7 41 -5 14 2 45 5 69 7 35 3 46 8 52 26 6 14 5 20 -1 16 -6 -3 -10 -1 -10 6
0 6 -8 9 -20 6 -11 -3 -18 -2 -16 1 2 4 -11 14 -30 23 -32 16 -34 15 -59 -11z"/>
<path d="M7260 3977 c0 -18 21 -37 41 -37 24 0 33 18 19 35 -15 19 -60 20 -60
2z"/>
<path d="M7055 3970 c-9 -15 14 -40 36 -40 24 0 33 18 19 35 -14 17 -46 20
-55 5z"/>
<path d="M7628 3933 c20 -37 27 -62 27 -108 0 -77 -26 -128 -89 -176 -26 -20
-53 -47 -60 -60 -6 -13 -23 -29 -36 -36 -22 -11 -23 -13 -5 -13 28 0 93 36
134 74 80 74 96 206 40 318 -10 20 -23 39 -28 43 -6 3 2 -16 17 -42z"/>
<path d="M4500 3960 c0 -5 5 -10 11 -10 5 0 7 5 4 10 -3 6 -8 10 -11 10 -2 0
-4 -4 -4 -10z"/>
<path d="M4360 3956 c0 -2 8 -10 18 -17 15 -13 16 -12 3 4 -13 16 -21 21 -21
13z"/>
<path d="M4530 3946 c0 -2 8 -10 18 -17 15 -13 16 -12 3 4 -13 16 -21 21 -21
13z"/>
<path d="M5030 3932 c0 -8 132 -64 138 -58 4 5 -115 66 -128 66 -5 0 -10 -4
-10 -8z"/>
<path d="M6870 3930 c-8 -5 -12 -12 -9 -15 4 -3 12 1 19 10 14 17 11 19 -10 5z"/>
<path d="M6927 3914 c-4 -4 -7 -17 -7 -28 1 -19 1 -20 11 -3 11 19 8 43 -4 31z"/>
<path d="M7157 3894 c-11 -12 13 -44 33 -44 25 0 35 17 20 35 -13 15 -42 20
-53 9z"/>
<path d="M7275 3881 c-7 -12 22 -41 40 -41 21 0 28 19 15 35 -14 17 -46 20
-55 6z"/>
<path d="M6128 3873 c12 -2 30 -2 40 0 9 3 -1 5 -23 4 -22 0 -30 -2 -17 -4z"/>
<path d="M6881 3844 c-7 -16 -8 -31 -3 -36 11 -11 32 35 23 51 -5 8 -12 2 -20
-15z"/>
<path d="M7065 3830 c-10 -16 15 -41 39 -38 32 5 28 42 -6 46 -14 2 -29 -2
-33 -8z"/>
<path d="M7596 3784 c-4 -14 -5 -28 -3 -31 3 -2 8 8 11 23 4 14 5 28 3 31 -3
2 -8 -8 -11 -23z"/>
<path d="M7294 3775 c-8 -21 4 -35 32 -35 17 0 24 6 24 19 0 29 -46 43 -56 16z"/>
<path d="M6720 3770 c0 -5 5 -10 11 -10 5 0 7 5 4 10 -3 6 -8 10 -11 10 -2 0
-4 -4 -4 -10z"/>
<path d="M7060 3777 c0 -2 15 -16 33 -33 l32 -29 -29 33 c-28 30 -36 37 -36
29z"/>
<path d="M7750 3750 c6 -11 13 -20 16 -20 2 0 0 9 -6 20 -6 11 -13 20 -16 20
-2 0 0 -9 6 -20z"/>
<path d="M7190 3707 c0 -18 21 -37 41 -37 22 0 31 13 23 34 -7 20 -64 22 -64
3z"/>
<path d="M7771 3717 c-1 -4 6 -24 14 -44 9 -20 13 -44 10 -54 -3 -9 -1 -20 5
-24 24 -15 6 -164 -25 -209 -12 -16 -13 -15 -11 18 2 21 -1 36 -8 36 -6 0 -4
5 4 11 12 8 9 9 -11 5 -22 -5 -29 -1 -38 22 -6 15 -20 40 -30 55 l-18 27 -59
-40 c-32 -22 -63 -40 -67 -40 -5 0 7 19 26 43 19 23 38 49 42 57 8 13 7 13
-11 0 -10 -8 -22 -19 -26 -25 -4 -5 -8 -7 -8 -2 0 15 -59 -23 -79 -52 -20 -27
-20 -30 -4 -33 12 -3 6 -8 -19 -17 l-37 -12 39 -35 c37 -34 47 -59 56 -139 9
-93 11 -99 31 -108 30 -13 111 33 169 95 84 90 123 213 104 328 -9 56 -47 160
-49 137z"/>
<path d="M7370 3687 c0 -18 21 -37 41 -37 24 0 33 18 19 35 -15 19 -60 20 -60
2z"/>
<path d="M7198 3658 c5 -5 16 -8 23 -6 8 3 3 7 -10 11 -17 4 -21 3 -13 -5z"/>
<path d="M7035 3639 c-4 -10 -4 -28 0 -39 5 -16 3 -19 -11 -13 -11 4 -15 3
-11 -4 4 -6 2 -13 -4 -15 -9 -3 -9 -10 1 -27 7 -13 9 -37 6 -54 -8 -38 -81
-182 -107 -210 -11 -12 -18 -26 -16 -32 7 -20 83 -62 143 -78 64 -18 97 -22
78 -9 -24 16 -31 44 -21 86 6 22 14 43 18 46 4 3 9 21 11 40 1 19 5 37 8 40 3
3 15 19 27 37 25 34 24 35 -39 67 -40 20 -49 40 -23 50 9 3 15 18 15 35 0 40
8 43 55 22 22 -10 58 -20 80 -23 39 -6 38 -5 -21 23 -33 16 -88 40 -122 53
-59 23 -61 24 -67 5z"/>
<path d="M5100 3620 c19 -13 30 -13 30 0 0 6 -10 10 -22 10 -19 0 -20 -2 -8
-10z"/>
<path d="M5375 3613 c-11 -2 -56 -8 -100 -13 l-80 -9 99 5 c54 2 106 9 115 14
18 10 7 11 -34 3z"/>
<path d="M7842 3600 c0 -14 2 -19 5 -12 2 6 2 18 0 25 -3 6 -5 1 -5 -13z"/>
<path d="M5580 3556 c0 -8 4 -17 9 -20 5 -4 7 3 4 14 -6 23 -13 26 -13 6z"/>
<path d="M6550 3538 c0 -35 15 -67 25 -56 7 6 -12 88 -20 88 -3 0 -5 -15 -5
-32z"/>
<path d="M7850 3533 c0 -40 -25 -157 -37 -177 -4 -6 -8 -16 -9 -23 -3 -21 -62
-99 -97 -129 -33 -29 -43 -35 -102 -74 -16 -11 -25 -20 -19 -20 6 0 37 17 70
38 125 82 193 194 202 337 2 47 2 85 -2 85 -3 0 -6 -17 -6 -37z"/>
<path d="M7225 3516 c-9 -14 -15 -33 -13 -43 4 -23 48 -31 48 -9 0 9 -6 16
-12 17 -7 0 4 7 25 16 40 16 49 33 18 33 -11 0 -26 3 -34 6 -10 3 -22 -4 -32
-20z"/>
<path d="M5611 3454 c0 -11 3 -14 6 -6 3 7 2 16 -1 19 -3 4 -6 -2 -5 -13z"/>
<path d="M6395 3370 c11 -12 13 -20 6 -20 -7 0 -9 -5 -6 -10 4 -6 11 -7 17 -4
7 5 9 2 6 -8 -4 -8 -1 -15 7 -15 7 0 11 6 8 14 -3 9 0 11 10 7 8 -3 18 -1 22
5 3 6 -1 12 -9 12 -36 3 -39 4 -43 16 -2 6 4 13 14 16 10 3 3 5 -16 6 -33 1
-34 1 -16 -19z"/>
<path d="M5055 3350 c-3 -5 -1 -10 4 -10 6 0 11 5 11 10 0 6 -2 10 -4 10 -3 0
-8 -4 -11 -10z"/>
<path d="M5660 3356 c0 -2 8 -10 18 -17 15 -13 16 -12 3 4 -13 16 -21 21 -21
13z"/>
<path d="M6323 3295 c-41 -61 -64 -79 -143 -108 -10 -4 -11 -6 -2 -6 39 -3
105 43 147 100 38 52 53 80 43 79 -2 0 -22 -29 -45 -65z"/>
<path d="M5700 3316 c0 -2 8 -10 18 -17 15 -13 16 -12 3 4 -13 16 -21 21 -21
13z"/>
<path d="M6380 3278 c0 -9 7 -19 16 -22 15 -6 15 -4 3 11 -7 10 -15 20 -16 22
-2 2 -3 -3 -3 -11z"/>
<path d="M5754 3271 c7 -11 46 -35 46 -28 0 3 -12 12 -26 22 -15 9 -23 12 -20
6z"/>
<path d="M6765 3246 c18 -27 13 -33 -27 -31 l-28 1 23 -24 c35 -37 116 -94
126 -88 4 3 14 19 21 36 8 20 18 29 27 26 8 -3 11 -1 8 4 -3 6 -11 10 -16 10
-6 0 -42 20 -80 45 -56 36 -66 40 -54 21z"/>
<path d="M5836 3219 c6 -10 102 -41 113 -37 5 2 -20 12 -54 23 -35 12 -62 18
-59 14z"/>
<path d="M6113 3173 c9 -2 23 -2 30 0 6 3 -1 5 -18 5 -16 0 -22 -2 -12 -5z"/>
<path d="M6955 3172 c16 -13 67 -33 61 -23 -3 5 -20 14 -38 20 -18 6 -28 8
-23 3z"/>
<path d="M6033 3163 c9 -2 25 -2 35 0 9 3 1 5 -18 5 -19 0 -27 -2 -17 -5z"/>
<path d="M6940 3150 c8 -5 20 -10 25 -10 6 0 3 5 -5 10 -8 5 -19 10 -25 10 -5
0 -3 -5 5 -10z"/>
<path d="M7077 3051 c-18 -43 -15 -45 67 -60 79 -15 154 -13 191 4 17 7 24 14
18 14 -20 1 -15 29 5 33 9 2 -19 7 -63 12 -44 4 -107 13 -142 20 l-62 13 -14
-36z"/>
<path d="M7228 2723 c7 -3 16 -2 19 1 4 3 -2 6 -13 5 -11 0 -14 -3 -6 -6z"/>
<path d="M5573 2585 c-24 -7 -43 -11 -43 -8 0 2 -12 -2 -27 -11 -16 -8 -53
-26 -84 -40 -51 -24 -56 -29 -51 -53 3 -18 1 -24 -7 -19 -6 4 -11 3 -11 -3 0
-5 5 -13 10 -16 6 -3 10 -11 10 -16 0 -6 -5 -7 -12 -3 -8 5 -9 2 -5 -10 4 -9
3 -15 -2 -12 -5 3 -11 -4 -14 -15 -3 -12 -10 -18 -15 -15 -6 3 -12 0 -15 -6
-2 -7 -8 -10 -11 -6 -4 3 1 15 11 26 48 53 55 69 26 57 -15 -5 -16 -4 -5 6 6
7 12 17 12 23 0 5 -6 1 -14 -10 -8 -10 -20 -19 -27 -19 -19 0 -75 -87 -81
-125 -6 -37 38 -164 53 -154 4 2 19 -21 33 -51 14 -30 29 -55 34 -55 5 0 8
-11 7 -25 -2 -14 1 -23 6 -19 5 3 9 1 9 -5 0 -15 60 -70 100 -90 40 -21 135
-39 110 -22 -15 11 8 9 78 -5 12 -2 41 1 62 7 30 9 40 17 40 33 0 15 3 17 9 8
6 -11 9 -10 13 5 3 10 4 21 4 24 -3 19 28 38 54 33 24 -5 28 -3 28 20 0 14 -4
26 -9 26 -5 0 -9 -6 -9 -14 0 -11 -11 -13 -42 -11 -24 2 -47 4 -51 4 -5 1 -6
5 -3 10 3 4 16 6 29 4 24 -5 107 26 107 39 0 5 7 8 15 8 21 0 19 -13 -5 -35
-27 -24 -25 -38 3 -30 21 6 21 5 2 -6 -23 -14 -44 -40 -45 -53 0 -6 9 0 20 12
12 12 24 22 28 22 16 0 34 -18 29 -28 -10 -15 30 -9 50 8 10 9 23 17 28 18 6
1 10 9 10 16 0 8 4 18 9 23 5 5 6 2 1 -7 -5 -9 -5 -12 1 -7 5 5 10 21 10 35 3
50 4 53 14 47 6 -3 10 0 10 7 0 8 7 23 16 34 14 18 15 18 4 -4 -20 -41 -5 -47
24 -9 19 25 27 44 23 59 -3 13 -11 43 -17 68 -6 25 -16 65 -21 90 -11 48 -67
140 -85 140 -7 0 -15 7 -18 16 -3 8 -10 13 -15 10 -5 -3 -12 1 -15 10 -4 9 -9
14 -13 11 -3 -4 -18 1 -32 11 -84 57 -237 78 -338 47z m50 -141 c24 -4 34 -10
27 -14 -9 -6 -7 -11 8 -19 28 -15 32 -14 25 6 -5 11 -3 14 6 9 7 -5 11 -16 8
-25 -6 -26 20 -43 69 -45 25 -1 48 -6 52 -12 4 -6 20 -10 37 -10 19 1 40 -8
63 -28 30 -26 33 -33 27 -65 -3 -20 -16 -44 -28 -53 -21 -17 -21 -18 -2 -19
11 0 14 -3 8 -6 -7 -2 -13 -9 -13 -15 0 -6 7 -8 15 -4 8 3 15 1 15 -4 0 -6 -4
-10 -10 -10 -5 0 -7 -7 -4 -15 4 -8 1 -15 -5 -15 -6 0 -10 3 -10 8 4 26 -1 34
-16 22 -9 -7 -15 -8 -15 -2 0 5 -9 8 -20 5 -11 -3 -17 -10 -14 -15 4 -6 -6 -2
-22 8 -34 22 -58 44 -48 44 3 0 1 7 -6 15 -11 13 -10 14 4 9 9 -3 16 -12 16
-20 0 -8 2 -14 4 -14 2 0 13 -3 23 -7 16 -6 16 -5 5 9 -7 9 -14 31 -14 48 -1
18 -7 34 -14 37 -7 2 -16 17 -19 33 -5 21 -11 27 -26 23 -10 -3 -19 -13 -19
-22 -1 -13 -3 -12 -12 4 -27 48 -37 54 -71 40 -18 -7 -32 -18 -32 -24 0 -18
-21 -31 -52 -34 -17 -1 -29 -4 -27 -6 2 -2 -3 -13 -13 -23 -9 -11 -11 -18 -5
-18 7 0 12 4 12 9 0 5 8 11 18 15 9 3 23 9 31 12 8 4 3 -5 -11 -19 -20 -20
-34 -25 -68 -24 -27 1 -45 7 -48 16 -3 10 0 12 12 8 10 -4 24 1 35 12 19 19
19 19 -5 25 -13 4 -24 11 -24 16 0 16 -39 50 -45 40 -7 -12 3 -32 13 -27 4 2
17 -7 29 -20 l22 -23 -25 -6 c-15 -4 -30 -1 -37 6 -10 10 -8 12 6 7 23 -8 22
-3 -8 29 -19 21 -22 30 -14 40 6 8 9 20 6 28 -3 8 1 17 10 20 11 5 14 2 9 -11
-5 -12 -4 -14 2 -8 6 6 12 19 14 30 2 13 10 19 23 17 10 -2 27 6 38 20 11 13
17 16 14 7 -4 -13 0 -15 21 -10 19 3 22 6 9 9 -9 2 -15 8 -11 13 3 5 13 8 22
5 10 -3 34 -8 55 -12z m-333 -35 c-7 -11 -14 -18 -17 -15 -3 3 0 12 7 21 18
21 23 19 10 -6z m390 -105 c0 -8 -5 -12 -10 -9 -6 4 -8 11 -5 16 9 14 15 11
15 -7z m-20 -24 c0 -5 -4 -10 -10 -10 -5 0 -10 5 -10 10 0 6 5 10 10 10 6 0
10 -4 10 -10z m25 -10 c3 -5 1 -10 -4 -10 -6 0 -11 5 -11 10 0 6 2 10 4 10 3
0 8 -4 11 -10z m109 -39 c3 -5 -1 -11 -9 -15 -15 -6 -29 7 -18 18 9 9 21 8 27
-3z m-139 -11 c3 -5 -1 -10 -9 -10 -9 0 -16 5 -16 10 0 6 4 10 9 10 6 0 13 -4
16 -10z m-357 -31 c-3 -8 -7 -3 -11 10 -4 17 -3 21 5 13 5 -5 8 -16 6 -23z
m669 -1 c-3 -8 -6 -5 -6 6 -1 11 2 17 5 13 3 -3 4 -12 1 -19z m-692 -8 c3 -5
1 -10 -4 -10 -6 0 -11 5 -11 10 0 6 2 10 4 10 3 0 8 -4 11 -10z m475 -3 c0 -7
-5 -18 -11 -24 -8 -8 -8 -17 0 -31 9 -16 7 -21 -8 -25 -15 -4 -17 1 -15 24 2
15 -1 31 -6 34 -6 3 -10 -3 -10 -15 0 -12 -4 -18 -10 -15 -18 11 -11 30 18 47
34 20 42 21 42 5z m-440 -28 c0 -6 -4 -7 -10 -4 -5 3 -10 11 -10 16 0 6 5 7
10 4 6 -3 10 -11 10 -16z m460 -25 c0 -8 -4 -14 -10 -14 -5 0 -10 9 -10 21 0
11 5 17 10 14 6 -3 10 -13 10 -21z m-5 -34 c-3 -5 -14 -10 -23 -9 -14 0 -13 2
3 9 27 11 27 11 20 0z m205 -20 c0 -5 -7 -7 -16 -3 -9 3 -20 0 -25 -8 -7 -11
-9 -11 -9 4 0 12 8 17 25 17 14 0 25 -4 25 -10z m-164 -18 c-3 -6 -16 -7 -29
-4 -22 6 -22 6 3 12 28 8 35 6 26 -8z m159 -46 c12 -12 12 -16 1 -25 -15 -13
-26 -5 -26 21 0 22 7 23 25 4z"/>
<path d="M5780 2340 c0 -5 5 -10 10 -10 6 0 10 5 10 10 0 6 -4 10 -10 10 -5 0
-10 -4 -10 -10z"/>
<path d="M5910 2279 c6 -11 8 -33 5 -50 -9 -40 1 -37 15 6 9 29 9 38 -4 50
-21 21 -29 19 -16 -6z"/>
<path d="M5830 2210 c0 -5 5 -10 11 -10 5 0 7 5 4 10 -3 6 -8 10 -11 10 -2 0
-4 -4 -4 -10z"/>
<path d="M6522 2269 c-11 -24 -22 -55 -26 -69 -7 -24 -7 -24 6 -5 18 26 49
107 43 113 -2 3 -13 -15 -23 -39z"/>
<path d="M6836 2295 c-8 -9 -18 -16 -21 -15 -20 1 -25 -2 -25 -13 0 -8 -11
-19 -24 -27 -45 -23 -50 -108 -10 -145 15 -14 30 -22 35 -20 4 3 10 2 13 -3 2
-4 -9 -9 -25 -10 -21 -2 -28 1 -23 9 5 8 -2 10 -24 7 -17 -2 -33 0 -35 5 -1 5
-25 2 -54 -6 -44 -13 -51 -13 -46 -1 3 8 0 14 -6 14 -26 0 -8 -39 37 -79 l49
-44 -29 -27 c-31 -30 -43 -67 -28 -85 6 -7 -1 -11 -23 -13 -18 -1 -54 -9 -82
-17 -27 -8 -74 -21 -103 -29 -36 -10 -66 -28 -92 -53 l-38 -38 20 -36 c16 -30
29 -38 81 -53 72 -20 137 -27 137 -15 0 5 5 9 11 9 5 0 7 -4 4 -10 -3 -5 3
-10 14 -10 12 0 21 -6 21 -14 0 -7 10 -16 23 -19 20 -5 20 -5 5 7 -19 14 -25
32 -8 21 6 -3 10 5 10 18 0 28 25 44 34 22 3 -9 12 -12 22 -8 12 4 15 3 10 -5
-4 -7 -14 -12 -22 -12 -8 0 -14 -4 -14 -9 0 -5 -3 -17 -7 -27 -5 -14 -3 -16
11 -11 25 10 94 -15 99 -35 4 -13 11 -16 24 -12 16 6 16 5 -2 -10 -14 -13 -15
-16 -4 -13 14 4 14 0 5 -34 -8 -33 -7 -42 6 -56 34 -33 138 -11 302 64 70 32
102 41 109 34 6 -6 8 -11 4 -11 -14 0 23 -59 60 -95 23 -23 50 -37 75 -41 20
-4 35 -10 32 -15 -12 -20 44 5 61 27 6 7 24 18 40 24 28 9 29 9 11 -5 -11 -8
-24 -15 -29 -15 -4 0 -5 -5 -2 -10 4 -6 1 -18 -6 -26 -11 -13 -8 -19 19 -41
18 -13 32 -33 32 -44 0 -10 6 -19 14 -19 9 0 12 -7 9 -20 -4 -13 0 -20 9 -20
8 0 20 -11 26 -25 7 -14 20 -28 29 -32 24 -9 56 -43 77 -84 34 -66 41 -76 54
-71 7 2 12 -5 12 -18 0 -17 4 -20 21 -15 15 5 19 4 14 -5 -4 -6 1 -17 11 -25
11 -7 19 -18 19 -23 0 -6 18 -27 39 -48 22 -22 37 -31 33 -21 -4 11 -3 16 3
12 6 -3 7 -17 4 -31 -4 -14 -2 -24 5 -24 6 0 11 -7 11 -15 0 -13 4 -14 23 -4
19 11 20 10 10 -2 -10 -12 -8 -21 10 -47 12 -18 33 -37 47 -43 14 -7 34 -26
45 -43 11 -17 31 -36 45 -43 14 -7 25 -19 25 -27 0 -8 10 -24 23 -36 12 -11
22 -27 22 -35 0 -8 5 -15 10 -15 6 0 10 -5 10 -11 0 -6 25 -36 55 -65 30 -30
55 -61 55 -69 0 -8 5 -15 10 -15 14 0 45 -31 53 -52 4 -10 13 -18 22 -18 8 0
15 -6 15 -13 0 -7 9 -18 20 -25 11 -6 26 -28 34 -47 8 -19 22 -35 30 -35 9 0
16 -5 16 -10 0 -14 86 -100 100 -100 13 0 -18 62 -36 73 -8 4 -14 13 -14 19 0
16 -69 118 -81 118 -5 0 -9 7 -9 15 0 14 -94 153 -177 260 -52 69 -113 155
-113 161 0 3 -11 20 -25 38 -14 18 -25 36 -25 40 0 4 -5 12 -10 19 -15 17
-103 137 -115 156 -5 9 -13 18 -16 21 -3 3 -9 12 -13 20 -15 32 -54 91 -111
169 -33 46 -68 95 -77 109 -30 46 -43 64 -55 78 -7 7 -13 15 -13 18 0 4 -56
68 -77 88 -47 44 -61 53 -77 50 -13 -3 -17 0 -13 10 7 21 -27 40 -43 25 -10
-9 -11 -9 -5 2 9 16 -8 8 -37 -17 -16 -14 -18 -13 -18 5 0 11 7 26 15 33 18
15 15 81 -5 105 -10 12 -10 15 0 15 8 0 10 3 6 7 -4 5 -14 -1 -22 -11 -8 -11
-14 -16 -14 -12 0 4 -19 -6 -42 -22 -24 -16 -62 -39 -86 -51 -26 -13 -40 -26
-36 -33 5 -7 2 -8 -6 -3 -10 6 -8 13 11 28 24 19 26 22 28 56 1 21 28 22 41 2
9 -16 116 53 261 170 107 85 157 120 146 102 -5 -7 -4 -13 2 -13 6 0 11 -5 11
-10 0 -6 14 -30 31 -53 62 -85 119 -173 148 -227 16 -30 41 -73 57 -95 15 -22
41 -65 57 -95 17 -30 59 -98 94 -152 35 -54 63 -100 63 -103 0 -4 21 -39 46
-78 57 -88 234 -377 234 -382 0 -3 25 -41 55 -85 30 -44 55 -83 55 -86 0 -2
46 -78 101 -167 56 -89 115 -187 132 -217 17 -30 36 -58 43 -63 7 -4 11 -15 8
-25 -3 -9 14 4 38 29 53 56 98 136 82 147 -11 7 -175 273 -257 417 -22 39 -54
93 -72 120 -44 69 -112 184 -255 430 -68 116 -135 228 -150 250 -15 22 -40 65
-56 95 -15 30 -40 71 -56 90 -15 19 -28 38 -28 42 0 25 -236 378 -253 378 -4
0 4 20 18 43 84 145 -50 149 -327 11 -37 -19 -70 -34 -72 -34 -3 0 1 19 10 42
20 58 11 59 -11 1 -40 -105 -81 -134 -212 -148 -103 -11 -175 36 -216 140
l-15 40 -10 -27 c-6 -14 -16 -29 -21 -33 -8 -4 -8 1 -2 18 7 17 6 28 -2 36 -9
9 -8 11 4 6 13 -5 17 4 22 47 6 44 3 58 -19 95 -36 62 -84 81 -118 48z m54
-36 c-7 -11 -14 -18 -17 -15 -8 8 5 36 17 36 7 0 7 -6 0 -21z m-21 -62 c0 -21
-1 -21 -9 -2 -12 28 -12 37 0 30 6 -3 10 -16 9 -28z m36 -163 c-1 -31 -12 -59
-12 -31 0 7 -3 24 -6 38 -5 18 -3 26 7 26 8 0 12 -12 11 -33z m-18 -76 c-3 -8
-6 -5 -6 6 -1 11 2 17 5 13 3 -3 4 -12 1 -19z m43 -42 c0 -2 -9 -6 -20 -9 -11
-3 -18 -1 -14 4 5 9 34 13 34 5z m320 -107 c0 -5 -6 -9 -12 -9 -7 0 -26 -7
-42 -15 -31 -16 -53 -8 -44 17 6 15 98 22 98 7z m190 -9 c0 -5 7 -10 16 -10 8
0 12 -4 9 -10 -3 -5 -16 -10 -28 -10 -13 0 -32 -7 -44 -15 -12 -8 -27 -13 -35
-10 -7 2 -42 -1 -77 -9 -56 -12 -67 -11 -80 1 -12 13 -12 16 0 23 18 12 118
24 126 16 4 -3 13 0 22 8 26 22 91 34 91 16z m-445 -87 c4 -21 3 -33 -4 -33
-6 0 -11 10 -11 23 0 12 -3 33 -6 47 -4 18 -3 21 4 10 5 -8 13 -30 17 -47z
m-145 32 c0 30 14 8 15 -25 1 -24 -1 -27 -16 -20 -17 10 -29 32 -29 53 0 7 7
3 15 -7 14 -19 15 -19 15 -1z m-225 -25 c5 -8 11 -7 20 0 8 7 23 9 35 5 19 -6
22 -11 24 -45 1 -10 13 -15 36 -16 19 0 38 -2 43 -4 4 -1 12 -3 19 -4 6 0 13
-7 16 -15 3 -9 0 -11 -8 -6 -7 5 -41 10 -74 11 -34 2 -74 5 -91 8 -16 2 -33
-1 -37 -8 -6 -8 -10 -8 -15 0 -5 6 -16 13 -26 17 -23 9 -12 28 11 20 14 -5 13
-2 -3 11 -20 17 -19 17 7 12 22 -5 26 -3 22 9 -7 17 11 21 21 5z m705 -5 c-46
-18 -64 -17 -25 0 17 8 37 14 45 14 8 0 -1 -7 -20 -14z m-745 -105 c3 -5 2
-10 -4 -10 -5 0 -13 5 -16 10 -3 6 -2 10 4 10 5 0 13 -4 16 -10z m135 -22 c0
-5 -4 -8 -9 -8 -5 0 -11 -8 -13 -17 -3 -15 -4 -15 -20 1 -10 9 -24 14 -30 11
-7 -4 -5 0 5 8 18 15 67 18 67 5z m670 -9 c0 -11 -4 -18 -10 -14 -5 3 -7 12
-3 20 7 21 13 19 13 -6z m-39 -6 c13 -16 12 -17 -3 -4 -10 7 -18 15 -18 17 0
8 8 3 21 -13z m-595 -1 c9 -5 8 -11 -2 -20 -8 -7 -14 -11 -15 -10 -9 37 -5 45
17 30z m499 -42 c-3 -5 -12 -10 -18 -10 -7 0 -6 4 3 10 19 12 23 12 15 0z
m-465 -10 c0 -5 -7 -7 -15 -4 -8 4 -15 8 -15 10 0 2 7 4 15 4 8 0 15 -4 15
-10z m665 -60 c-27 -12 -43 -12 -25 0 8 5 22 9 30 9 10 0 8 -3 -5 -9z m35 -20
c18 -12 2 -12 -25 0 -13 6 -15 9 -5 9 8 0 22 -4 30 -9z m-80 -55 c-7 -8 -17
-12 -22 -9 -6 4 -5 10 3 15 22 14 33 10 19 -6z m-40 -26 c0 -6 -4 -7 -10 -4
-5 3 -10 11 -10 16 0 6 5 7 10 4 6 -3 10 -11 10 -16z"/>
<path d="M6645 1680 c-4 -6 3 -10 14 -10 25 0 27 6 6 13 -8 4 -17 2 -20 -3z"/>
<path d="M6490 2165 c0 -26 50 -60 97 -67 46 -6 26 14 -35 37 -26 10 -50 23
-54 29 -5 6 -8 7 -8 1z"/>
<path d="M6687 2143 c-4 -3 -7 -11 -7 -17 0 -6 5 -5 12 2 6 6 9 14 7 17 -3 3
-9 2 -12 -2z"/>
<path d="M6645 2110 c-3 -5 1 -10 9 -10 9 0 16 5 16 10 0 6 -4 10 -9 10 -6 0
-13 -4 -16 -10z"/>
<path d="M5795 1940 c-3 -5 -1 -10 4 -10 6 0 11 5 11 10 0 6 -2 10 -4 10 -3 0
-8 -4 -11 -10z"/>
<path d="M5900 1942 c0 -6 -8 -13 -17 -15 -16 -4 -16 -5 -1 -6 18 -1 34 16 24
26 -3 4 -6 1 -6 -5z"/>
<path d="M5785 1910 c3 -6 -1 -7 -9 -4 -9 3 -16 1 -16 -5 0 -13 29 -14 48 -2
11 7 10 10 -3 15 -23 8 -27 8 -20 -4z"/>
<path d="M7246 1591 c-4 -7 -5 -15 -2 -18 9 -9 19 4 14 18 -4 11 -6 11 -12 0z"/>
</g>
</svg>
